<svg width="30" height="30" viewBox="0 0 30 30" fill="none" xmlns="http://www.w3.org/2000/svg">
<path d="M6.0343 17.1692C6.0343 16.2949 6.63466 15.4252 6.98755 14.7162C7.48818 13.7105 7.95554 12.5494 8.55501 11.6291C8.91694 11.0734 9.27555 10.6613 9.74904 10.2769" stroke="black" stroke-width="2" stroke-linecap="round"/>
<path d="M4 11.4615C5.93208 11.4615 7.62553 11.995 9.47874 12.5923C10.0768 12.7851 10.628 13.101 11.2329 13.2684C11.4157 13.319 11.9756 13.4377 12.0486 13.6154" stroke="black" stroke-width="2" stroke-linecap="round"/>
<path d="M15.0558 7.36923C15.6852 7.36923 16.309 7.34448 16.9328 7.45299C17.6024 7.56945 18.2186 7.93137 18.8639 8.17692C19.4978 8.41814 20.2322 8.76923 20.8932 8.76923" stroke="black" stroke-width="2" stroke-linecap="round"/>
<path d="M16.5593 12C16.5593 11.4024 16.5078 10.7884 16.6969 10.2231C16.9951 9.33191 17.4312 8.51046 17.7484 7.63248C17.938 7.10807 18.1501 6.5834 18.3283 6.05299C18.4392 5.72294 18.4925 5.16925 18.7705 5" stroke="black" stroke-width="2" stroke-linecap="round"/>
<path d="M7.27252 26C9.18722 26 11.1019 26 13.0166 26C15.4263 26 17.8123 25.9726 19.9645 24.4863C22.0379 23.0545 23.9354 21.0112 24.7848 18.2222C25.2149 16.8104 25.7577 15.0473 25.7577 13.5077" stroke="black" stroke-width="2" stroke-linecap="round"/>
</svg>
