<svg width="400" height="400" viewBox="0 0 400 400" fill="none" xmlns="http://www.w3.org/2000/svg">
<path d="M88.5625 220.918C88.5625 209.931 96.1066 199.003 100.541 190.094C106.832 177.455 112.705 162.866 120.238 151.301C124.786 144.318 129.292 139.139 135.242 134.31" stroke="black" stroke-width="20" stroke-linecap="round"/>
<path d="M63 149.196C87.2784 149.196 108.558 155.899 131.846 163.405C139.361 165.827 146.288 169.797 153.889 171.9C156.186 172.536 163.222 174.028 164.138 176.261" stroke="black" stroke-width="20" stroke-linecap="round"/>
<path d="M201.926 97.7717C209.835 97.7717 217.674 97.4608 225.513 98.8242C233.927 100.288 241.67 104.836 249.779 107.921C257.745 110.952 266.973 115.364 275.28 115.364" stroke="black" stroke-width="20" stroke-linecap="round"/>
<path d="M220.82 155.962C220.82 148.453 220.172 140.737 222.549 133.633C226.296 122.435 231.776 112.112 235.763 101.08C238.144 94.4899 240.809 87.8969 243.049 81.2319C244.442 77.0845 245.112 70.1268 248.606 68" stroke="black" stroke-width="20" stroke-linecap="round"/>
<path d="M104.122 331.886C128.182 331.886 152.242 331.886 176.302 331.886C206.582 331.886 236.565 331.542 263.61 312.865C289.664 294.872 313.507 269.196 324.182 234.15C329.585 216.409 336.407 194.254 336.407 174.907" stroke="black" stroke-width="20" stroke-linecap="round"/>
</svg>
