<svg xmlns="http://www.w3.org/2000/svg" width="39" height="39" fill="none" viewBox="0 0 39 39"><path stroke="#000" stroke-linecap="round" stroke-width="3" d="M9.42172 22.4872C9.42172 21.4463 10.1364 20.411 10.5565 19.567C11.1525 18.3696 11.7089 16.9874 12.4226 15.8917C12.8534 15.2303 13.2803 14.7396 13.844 14.2821"/><path stroke="#000" stroke-linecap="round" stroke-width="3" d="M7 15.6923C9.30009 15.6923 11.3161 16.3274 13.5223 17.0385C14.2343 17.2679 14.8905 17.644 15.6106 17.8433C15.8283 17.9035 16.4948 18.0449 16.5817 18.2564"/><path stroke="#000" stroke-linecap="round" stroke-width="3" d="M20.1616 10.8205C20.9109 10.8205 21.6536 10.7911 22.3962 10.9202C23.1933 11.0589 23.9268 11.4897 24.6951 11.782C25.4498 12.0692 26.324 12.4872 27.111 12.4872"/><path stroke="#000" stroke-linecap="round" stroke-width="3" d="M21.9516 16.3333C21.9516 15.6219 21.8902 14.891 22.1154 14.2179C22.4704 13.157 22.9895 12.1791 23.3672 11.1339C23.5928 10.5096 23.8453 9.885 24.0575 9.25356C24.1895 8.86065 24.253 8.20149 24.5839 8"/><path stroke="#000" stroke-linecap="round" stroke-width="3" d="M10.8958 33C13.1752 33 15.4546 33 17.734 33C20.6027 33 23.4432 32.9674 26.0054 31.198C28.4737 29.4934 30.7326 27.0609 31.7438 23.7407C32.2558 22.06 32.9021 19.961 32.9021 18.1282"/></svg>