<svg xmlns="http://www.w3.org/2000/svg" width="50" height="50" fill="none" viewBox="0 0 50 50"><path stroke="#000" stroke-linecap="round" stroke-width="3" d="M10.2825 27.6362C10.2825 26.2253 11.2512 24.8221 11.8206 23.6781C12.6284 22.0552 13.3826 20.1817 14.3499 18.6966C14.9339 17.8001 15.5125 17.135 16.2766 16.5148"/><path stroke="#000" stroke-linecap="round" stroke-width="3" d="M7 18.4263C10.1176 18.4263 12.8501 19.2871 15.8405 20.2509C16.8055 20.562 17.695 21.0717 18.671 21.3418C18.966 21.4235 19.8694 21.615 19.9872 21.9018"/><path stroke="#000" stroke-linecap="round" stroke-width="3" d="M24.8395 11.823C25.8551 11.823 26.8617 11.7831 27.8683 11.9581C28.9487 12.1461 29.943 12.7301 30.9843 13.1263C32.0072 13.5155 33.1922 14.082 34.2588 14.082"/><path stroke="#000" stroke-linecap="round" stroke-width="3" d="M27.2657 19.2952C27.2657 18.331 27.1825 17.3402 27.4877 16.4279C27.9689 14.99 28.6725 13.6645 29.1845 12.2478C29.4903 11.4016 29.8325 10.555 30.1201 9.6991C30.299 9.16654 30.3851 8.2731 30.8336 8"/><path stroke="#000" stroke-linecap="round" stroke-width="3" d="M12.2805 41.8855C15.3701 41.8855 18.4596 41.8855 21.5492 41.8855C25.4374 41.8855 29.2875 41.8414 32.7603 39.4431C36.1059 37.1327 39.1677 33.8356 40.5384 29.3353C41.2322 27.0572 42.1082 24.2123 42.1082 21.728"/></svg>