<svg xmlns="http://www.w3.org/2000/svg" xmlns:xlink="http://www.w3.org/1999/xlink" width="1000" height="1000" version="1.1" viewBox="0 0 1000 1000" xml:space="preserve"><desc>Created with Fabric.js 3.5.0</desc><rect width="100%" height="100%" x="0" y="0" fill="#fff"/><g id="373833"><path style="stroke:none;stroke-width:1;stroke-dasharray:none;stroke-linecap:butt;stroke-dashoffset:0;stroke-linejoin:miter;stroke-miterlimit:4;is-custom-font:none;font-file-url:none;fill:#000;fill-rule:nonzero;opacity:1" stroke-linecap="round" d="M 22.5 3.5888672 c 0.0002441 -0.2761841 -0.2234497 -0.5002441 -0.4996338 -0.5004883 c -0.0898438 -0.000061 -0.1779785 0.0240479 -0.255249 0.0698242 c -0.7038574 0.4194946 -1.4684448 0.7275391 -2.2666016 0.9130859 c -0.8716431 -0.8326416 -2.0318604 -1.2953491 -3.2373047 -1.2910156 c -2.6089478 0.0032349 -4.7229004 2.1176758 -4.7255859 4.7265625 c 0 0.1347656 0.0058594 0.2714844 0.0185547 0.4091797 C 8.5112915 7.5945435 5.7377319 6.09198 3.8173828 3.7353516 c -0.175354 -0.2139282 -0.4909668 -0.2451782 -0.704895 -0.0698242 c -0.0467529 0.0383301 -0.0861816 0.0848389 -0.116394 0.137207 C 2.581604 4.5263672 2.3637695 5.3458252 2.3642578 6.1797485 C 2.362915 7.0950928 2.6275635 7.9910889 3.1259766 8.7587891 c -0.0195312 -0.0107422 -0.039978 -0.0214844 -0.0595703 -0.0332031 c -0.1596069 -0.0778809 -0.3484497 -0.065979 -0.4970703 0.03125 c -0.1546631 0.1004028 -0.2477417 0.272583 -0.2470703 0.4570312 C 2.3181152 9.3320923 2.3253174 9.4505005 2.34375 9.5673218 c 0.0957642 1.3353882 0.7573853 2.5662842 1.8183594 3.3828735 c -0.0925903 0.0269165 -0.1751709 0.0805664 -0.2373047 0.1542969 c -0.1132812 0.1314087 -0.1502686 0.3121948 -0.0976562 0.4775391 c 0.468811 1.461731 1.62146 2.6026611 3.0878296 3.0566406 c -1.4753418 0.8259277 -3.1745605 1.1630249 -4.8535156 0.9628906 c -0.274231 -0.0336304 -0.5238037 0.161438 -0.5574341 0.4356689 c -0.0233154 0.1904297 0.06427 0.3773804 0.2254639 0.4813232 C 3.7386475 19.812439 6.0780029 20.5003662 8.4677734 20.5 c 5.5748291 0.0617676 10.4938965 -3.6341553 11.9863281 -9.0058594 c 0.3389282 -1.1375122 0.5119019 -2.3179321 0.5136719 -3.5048828 c 0 -0.1201172 0 -0.2451172 -0.0029297 -0.3720703 C 22.0166626 6.5477295 22.5733032 5.0870972 22.5 3.5888672 z M 20.0761719 7.1220703 c -0.0820923 0.0969849 -0.1240234 0.2217407 -0.1171875 0.3486328 c 0.0087891 0.1767578 0.0087891 0.3525391 0.0087891 0.5185547 c -0.0020142 1.0913086 -0.1611938 2.1766968 -0.4726562 3.2226562 C 18.1668701 16.1845703 13.6137085 19.6067505 8.4677734 19.5 c -1.5258789 0.0005493 -3.036377 -0.3045654 -4.4423828 -0.8974609 c 1.6526489 -0.1833496 3.220459 -0.8276367 4.5244141 -1.859375 c 0.2172241 -0.1707764 0.2548828 -0.4852905 0.0841064 -0.7025146 C 8.5411377 15.9225464 8.4001465 15.852417 8.25 15.8496094 c -1.3014526 -0.0209351 -2.4966431 -0.7225342 -3.1494141 -1.8486328 c 0.4240723 0.0012817 0.8461914 -0.057251 1.2539062 -0.1738281 c 0.2652588 -0.0761719 0.4185181 -0.3529053 0.3423462 -0.6181641 C 6.6450806 13.0286255 6.4966431 12.8924561 6.3125 12.8564453 c -1.463562 -0.2926636 -2.6086426 -1.4346924 -2.9052734 -2.8974609 c 0.4245605 0.1375122 0.8664551 0.2141113 1.3125 0.2275391 c 0.2264404 0.0168457 0.4329224 -0.1294556 0.4921875 -0.3486328 C 5.2793579 9.625 5.1976929 9.3931885 5.0117188 9.2695312 C 3.9785156 8.581604 3.3596802 7.4209595 3.3642578 6.1796875 C 3.3639526 5.7672119 3.4312134 5.3574829 3.5634766 4.9667969 C 5.7807617 7.361084 8.84552 8.7946777 12.1044922 8.9619141 c 0.1580811 0.0167236 0.3132935 -0.0512085 0.4082031 -0.1787109 c 0.1005859 -0.1207275 0.138855 -0.2814941 0.1035156 -0.4345703 c -0.0661621 -0.2757568 -0.0999756 -0.5582275 -0.1005859 -0.8417969 c 0.0019531 -2.0569458 1.6686401 -3.7240601 3.7255859 -3.7265625 c 1.0283203 -0.0029297 2.0109863 0.4244995 2.710022 1.1787109 c 0.1178589 0.1260986 0.2926025 0.182251 0.4619141 0.1484375 c 0.7096558 -0.1395874 1.3995972 -0.3652344 2.0546265 -0.671875 C 21.2976074 5.4550171 20.81073 6.3949585 20.0761719 7.1220703 z" transform="matrix(1.0921 0 0 1.1064 56.9249 131.0536) translate(-12.0034, -11.6405)" vector-effect="non-scaling-stroke"/></g></svg>